# xmcd
#
# Track frame offsets: 
#        150
#        14001
#        29460
#        48807
#        55756
#        69160
#        83991
#        93928
#        115734
#        124151
#        138662
#        154564
#
# Disc length: 2287 seconds
#
# Revision: 2
# Processed by: cddbd v1.5PL3 Copyright (c) Steve Scherf et al.
# Submitted via: ExactAudioCopy v0.95a4
#
DISCID=9608ed0c
DTITLE=The Pastels - Mobile Safari
DYEAR=1900
DGENRE=
TTITLE0=Exploration Team
TTITLE1=Mandarin
TTITLE2=Yoga
TTITLE3=Mobile Deli
TTITLE4=Exotic Arcade
TTITLE5=Classic Line-Up
TTITLE6=Flightpaths To Each Other
TTITLE7=Basement Scam
TTITLE8=Strategic Gear
TTITLE9=Token Collecting
TTITLE10=Coolport
TTITLE11=Worlds Of Possibilities
EXTD=
EXTT0=
EXTT1=
EXTT2=
EXTT3=
EXTT4=
EXTT5=
EXTT6=
EXTT7=
EXTT8=
EXTT9=
EXTT10=
EXTT11=
PLAYORDER=
